<?xml version="1.0" encoding="UTF-8" standalone="no"?>
<svg
   xmlns:dc="http://purl.org/dc/elements/1.1/"
   xmlns:cc="http://creativecommons.org/ns#"
   xmlns:rdf="http://www.w3.org/1999/02/22-rdf-syntax-ns#"
   xmlns:svg="http://www.w3.org/2000/svg"
   xmlns="http://www.w3.org/2000/svg"
   viewBox="0 0 327.72501 71.387497"
   height="71.387497"
   width="327.72501"
   xml:space="preserve"
   version="1.1"
   id="svg2"><metadata
     id="metadata8"><rdf:RDF><cc:Work
         rdf:about=""><dc:format>image/svg+xml</dc:format><dc:type
           rdf:resource="http://purl.org/dc/dcmitype/StillImage" /><dc:title></dc:title></cc:Work></rdf:RDF></metadata><defs
     id="defs6" /><g
     transform="matrix(1.25,0,0,-1.25,0,71.3875)"
     id="g10"><g
       transform="scale(0.1,0.1)"
       id="g12"><path
         id="path14"
         style="fill:#f46b1b;fill-opacity:1;fill-rule:nonzero;stroke:none"
         d="m 0,10.625 128.047,0 0,530.535 L 0,541.16 0,10.625 Z" /><path
         id="path16"
         style="fill:#f46b1b;fill-opacity:1;fill-rule:nonzero;stroke:none"
         d="m 289.156,402.324 c 0,22.309 14.614,40.004 43.856,40.004 30,0 46.929,-23.066 46.152,-56.152 l 118.465,0 c 5.406,94.613 -39.996,166.168 -165.406,166.168 -103.848,0 -171.539,-64.629 -171.539,-157.699 0,-64.618 28.464,-116.93 82.3,-144.641 29.266,-14.613 56.172,-24.617 83.106,-35.367 34.629,-13.098 56.144,-27.715 56.144,-57.703 0,-30.762 -21.515,-46.918 -50.765,-46.918 -42.313,0 -55.399,33.066 -53.852,66.925 l -121.527,0 C 151.453,99.2422 179.125,0 331.469,0 c 106.945,0 183.094,63.0742 183.094,170.777 0,79.227 -40.77,125.395 -110.012,153.852 l -66.922,26.152 c -36.149,13.844 -48.473,29.246 -48.473,51.543" /><path
         id="path18"
         style="fill:#231f20;fill-opacity:1;fill-rule:nonzero;stroke:none"
         d="m 1084.75,10.625 123.398,0 0,560.445 -123.398,0 0,-560.445 z" /><path
         id="path20"
         style="fill:#231f20;fill-opacity:1;fill-rule:nonzero;stroke:none"
         d="m 2498.37,10.625 123.398,0 0,560.445 -123.398,0 0,-560.445 z" /><path
         id="path22"
         style="fill:#231f20;fill-opacity:1;fill-rule:nonzero;stroke:none"
         d="m 1049.61,303.492 -204.704,0 0,-105.035 78.973,0 0,-38.32 C 907.793,143.262 869.438,119.48 810.426,119.48 c -84.332,0 -147.981,61.34 -147.981,157.18 0,91.235 57.496,154.863 141.067,154.863 66.699,0 102.711,-33.722 124.957,-65.16 l 101.211,72.832 c -39.106,62.875 -109.621,111.922 -225.418,111.922 -167.879,0 -275.235,-127.25 -275.235,-274.457 0,-165.601 111.188,-275.22641 275.235,-275.22641 56.758,0 96.621,15.31251 121.914,35.25391 l 0,-26.0742 123.434,0 0,292.8787" /><path
         id="path24"
         style="fill:#231f20;fill-opacity:1;fill-rule:nonzero;stroke:none"
         d="m 1349.86,215.316 c 0,57.5 34.49,101.204 92.75,101.204 55.98,0 93.56,-43.704 93.56,-101.204 0,-56.726 -34.51,-100.425 -92.78,-100.425 -55.19,0 -93.53,42.929 -93.53,100.425 m -122.66,-0.757 c 0,-118.8324 83.55,-210.84806 215.41,-210.84806 130.35,0 216.21,93.54686 216.21,213.14106 0,118.832 -82.79,210.843 -216.97,210.843 -125.71,0 -214.65,-93.547 -214.65,-213.136" /><path
         id="path26"
         style="fill:#231f20;fill-opacity:1;fill-rule:nonzero;stroke:none"
         d="m 1803.88,216.09 c 0,59.039 34.49,102.738 95.82,102.738 59.05,0 95.86,-43.699 95.86,-102.738 0,-58.27 -34.51,-101.965 -95.1,-101.965 -58.28,0 -96.58,42.934 -96.58,101.965 m -3.83,-177.8673 c 26.82,-22.2383 67.45,-34.51176 108.09,-34.51176 127.27,0 210.08,90.47266 210.08,212.37906 0,126.492 -76.68,211.613 -201.64,211.613 -47.54,0 -88.17,-16.875 -108.89,-35.281 l 0,178.633 -123.4,0 0,-560.4417 115.76,0 0,27.6094" /><path
         id="path28"
         style="fill:#231f20;fill-opacity:1;fill-rule:nonzero;stroke:none"
         d="m 2132.57,146.332 c 0.76,-87.4062 62.87,-140.30856 143.34,-140.30856 39.14,0 65.22,9.96096 84.34,26.83596 l 0,-22.2461 101.23,0 0,254.5507 c 0,91.969 -34.51,160.227 -162.54,160.227 -100.43,0 -148.73,-49.848 -151.03,-132.629 l 114.23,0 c 0,16.101 8.44,35.265 37.58,35.265 30.65,0 39.85,-21.476 39.85,-44.464 l 0,-16.868 c -10.71,6.887 -33.74,14.571 -67.47,14.571 -85.09,0 -140.29,-53.664 -139.53,-134.934 m 115.76,3.059 c 0,26.066 19.18,45.238 46,45.238 26.84,0 47.54,-17.637 47.54,-45.238 0,-26.852 -19.92,-45.996 -46.78,-45.996 -26.83,0 -46.76,19.144 -46.76,45.996" /></g></g></svg>